<?xml version="1.0" encoding="UTF-8" standalone="no"?>
<!-- Created with Inkscape (http://www.inkscape.org/) -->

<svg
   width="1920"
   height="1080"
   viewBox="0 0 1920 1080"
   version="1.1"
   id="svg1"
   inkscape:version="1.3.2 (091e20e, 2023-11-25, custom)"
   sodipodi:docname="onda-fundo-branco.svg"
   xmlns:inkscape="http://www.inkscape.org/namespaces/inkscape"
   xmlns:sodipodi="http://sodipodi.sourceforge.net/DTD/sodipodi-0.dtd"
   xmlns:xlink="http://www.w3.org/1999/xlink"
   xmlns="http://www.w3.org/2000/svg"
   xmlns:svg="http://www.w3.org/2000/svg">
  <sodipodi:namedview
     id="namedview1"
     pagecolor="#ffffff"
     bordercolor="#000000"
     borderopacity="0.25"
     inkscape:showpageshadow="2"
     inkscape:pageopacity="0.0"
     inkscape:pagecheckerboard="0"
     inkscape:deskcolor="#d1d1d1"
     inkscape:document-units="px"
     inkscape:zoom="0.25"
     inkscape:cx="912"
     inkscape:cy="514"
     inkscape:window-width="1600"
     inkscape:window-height="837"
     inkscape:window-x="-8"
     inkscape:window-y="-8"
     inkscape:window-maximized="1"
     inkscape:current-layer="layer1" />
  <defs
     id="defs1">
    <linearGradient
       inkscape:collect="always"
       xlink:href="#linearGradient70"
       id="linearGradient1"
       gradientUnits="userSpaceOnUse"
       gradientTransform="matrix(1.0002384,0,0,0.99993242,-8.450321,-0.24432504)"
       x1="8.4540291"
       y1="81.988121"
       x2="1908.6533"
       y2="81.988121" />
    <linearGradient
       id="linearGradient70"
       inkscape:collect="always">
      <stop
         style="stop-color:#66257e;stop-opacity:1;"
         offset="0"
         id="stop70" />
      <stop
         style="stop-color:#6334b1;stop-opacity:1;"
         offset="0.5"
         id="stop72" />
      <stop
         style="stop-color:#b943e4;stop-opacity:1;"
         offset="1"
         id="stop71" />
    </linearGradient>
    <linearGradient
       inkscape:collect="always"
       xlink:href="#linearGradient70"
       id="linearGradient2"
       gradientUnits="userSpaceOnUse"
       gradientTransform="matrix(1.0233935,0,0,1.1222682,-27.797121,-20.778725)"
       x1="8.4540291"
       y1="81.988121"
       x2="1908.6533"
       y2="81.988121" />
  </defs>
  <g
     inkscape:label="Camada 1"
     inkscape:groupmode="layer"
     id="layer1">
    <path
       id="rect1-7"
       style="display:inline;fill:url(#linearGradient1);stroke-width:32.5352"
       inkscape:label="rect1"
       d="M 0.00467906,0.00237496 V 134.43598 c 0.073,-0.031 0.1501,-0.06 0.2383,-0.074 0.2812,-0.045 0.63329999,0 1.03119994,0.1836 0.1917,0.088 0.3887,0.1617 0.584,0.2402 0.7965001,0 1.5904001,0.078 2.3789,0.1934 1.3121,0.2141 2.6272001,0.407 3.9453001,0.5801 1.6347,0.2266 3.2603999,0.5105 4.8906999,0.7656 1.224,0.156 2.4423,0.3476 3.6699,0.4746 1.2284,0.1414 2.4499,0.3553 3.6699,0.5547 1.1754,0.1722 2.3482,0.3572 3.5117,0.5977 0.9012,0.1986 1.8102,0.3484 2.7207,0.496 1.3768,0.2448 2.7722,0.3914 4.1602,0.5606 1.5583,0.18 3.1164,0.3656 4.6719,0.5703 1.3343,0.1393 2.6584,0.3621 3.9863,0.5488 1.2576,0.189 2.5113,0.3991 3.771501,0.5703 1.2849,0.2081 2.5681,0.4347 3.8554,0.629 1.6133,0.2407 3.2294,0.4613 4.8516,0.6328 1.615699,0.1943 3.228499,0.4088 4.8418,0.6211 1.554699,0.184 3.1105,0.3678 4.6582,0.6035 1.5814,0.2326 3.157599,0.4888 4.744099,0.6855 1.5611,0.1963 3.107601,0.4968 4.664101,0.7227 1.476299,0.223 2.9572,0.3906 4.4316,0.625 1.485,0.24 2.9726,0.4786 4.4629,0.6836 0.8458,0.1214 1.6893,0.2558 2.5332,0.3906 1.6739,0.1682 3.3443,0.3707 5.0196,0.5254 1.575999,0.1531 3.152299,0.2964 4.724599,0.4844 1.877301,0.2167 3.753201,0.461 5.626901,0.707 1.7562,0.2191 3.5155,0.4148 5.2676,0.666 0.5118,0.072 1.0249,0.1307 1.5371,0.1992 1.2948,0.1261 2.5893,0.2378 3.8789,0.4082 1.518,0.1929 3.0401,0.3689 4.5606,0.541 1.7505,0.231 3.5059,0.3938 5.2558,0.629 1.4138,0.2026 2.8321,0.3856 4.2539,0.5214 1.9421,0.163 3.8769,0.4117 5.8125,0.6348 1.6525,0.1859 3.3046,0.356 4.9532,0.5742 2.0228,0.2624 4.0569,0.4391 6.082,0.6817 1.4416,0.1576 2.8861,0.2944 4.332,0.4062 1.7603,0.1107 3.5192,0.2361 5.2754,0.3985 1.648,0.1378 3.2949,0.2838 4.9453,0.3886 1.9009,0.1686 3.8085,0.2474 5.7129,0.3614 1.7789,0.1087 3.5519,0.288 5.3301,0.4082 1.5576,0.1415 3.1138,0.3071 4.6699,0.4648 1.5055,0.1437 3.0073,0.3217 4.5078,0.5098 1.4378,0.1749 2.8847,0.2743 4.3262,0.4121 1.5549,0.12 3.1022,0.3041 4.6524,0.4707 1.4964,0.1346 2.9981,0.2364 4.496,0.3535 1.5323,0.1126 3.0638,0.2393 4.5977,0.3281 1.3044,0.1056 2.6055,0.2253 3.9082,0.3496 1.5991,0.1494 3.2071,0.1945 4.8125,0.2344 1.9248,0.031 3.8477,0.1326 5.7715,0.2031 1.5573,0.025 3.1125,0.1306 4.668,0.2129 1.3963,0.065 2.7921,0.092 4.1875,0.1778 1.3337,0.079 2.6634,0.2216 3.9961,0.3183 1.0458,0.076 2.0944,0.1071 3.1425,0.1289 0.959,0.011 1.9169,0.011 2.8731,0.082 0.7484,0.062 1.4979,0.1151 2.248,0.1504 0.6117,0.027 1.2238,0.032 1.836,0.037 0.1103,-0.019 0.2653,-0.1001 0.2812,0.01 4e-4,0 -4e-4,0 0,0 0.037,5e-4 0.023,0.041 0.027,0.066 0.1017,0 0.2033,0 0.3047,0 0.1824,1e-4 0.3645,-3e-4 0.5469,0 0.1965,0.001 0.3914,0 0.5879,0 0.1626,0 0.3258,0 0.4882,0.012 0.161,0.01 0.3214,0.02 0.4825,0.023 0.1782,0.01 0.3573,0.013 0.5351,0.025 0.1442,0.01 0.2878,0.015 0.4317,0.021 0.093,-9e-4 0.1866,-0.017 0.2793,-0.016 0.211,0 0.4217,0.01 0.6328,0.016 0.7203,0.01 1.4358,0.088 2.1504,0.1738 0.1185,0.01 0.2371,0.01 0.3554,0.02 0.1713,0.015 0.3424,0.029 0.5137,0.043 0.1922,0.02 0.3829,0.043 0.5742,0.07 0.1936,0.029 0.3894,0.053 0.584,0.074 0.1676,0.02 0.3342,0.04 0.502,0.059 0.149,0.017 0.2993,0.025 0.4492,0.031 0.1641,0.01 0.3279,0.01 0.4922,0 0.154,-0.001 0.307,0 0.4609,-0.01 0.184,-0.01 0.3685,-0.02 0.5527,-0.019 h 0.5411 0.5156 0.4922 c 0.1634,1e-4 0.3267,0 0.4902,0 0.1618,1e-4 0.3226,-1e-4 0.4844,0 0.1508,2e-4 0.3023,9e-4 0.4531,0 0.1481,0.001 0.2953,7e-4 0.4434,0 0.1603,0 0.3205,0.01 0.4804,0.022 0.1365,0.011 0.2734,0.023 0.4102,0.029 0.111,0.01 0.2213,0 0.332,0 0.088,-0.068 0.1503,-0.1582 0.3321,-0.1582 h 2.4179 c 0.9371,-0.026 1.8703,0.062 2.8047,0.1172 1.0507,0.058 2.1024,0.083 3.1543,0.1035 0.8257,-0.014 1.6464,0.05 2.4687,0.1114 1.1685,0.083 2.3347,0.198 3.504,0.2734 1.3916,0.1179 2.7784,0.2817 4.1699,0.4004 1.3654,0.1063 2.7353,0.1546 4.1015,0.248 1.3116,0.1 2.6249,0.1525 3.9395,0.1875 1.3019,0.03 2.604,0.039 3.9062,0.047 1.3365,0.01 2.6739,0.01 4.0098,0.01 1.1183,6e-4 2.2373,0 3.3555,0 1.3216,2e-4 2.6413,0 3.9629,0 1.3774,1e-4 2.7573,0 4.1347,0 h 5.0645 4.9531 5.0156 4.0254 4.1211 3.8867 4.3672 3.7578 3.7852 4.4414 4.2383 4.6641 4.9628 5.2891 c 1.3332,-0.013 2.6629,-0.1266 3.9902,-0.246 1.1595,-0.1092 2.3226,-0.163 3.4864,-0.1973 1.448,-0.01 2.895,-0.064 4.3418,-0.1309 1.3034,-0.065 2.6074,-0.1062 3.9121,-0.1347 1.2147,-0.075 2.4303,-0.15 3.6464,-0.1993 1.353,-0.05 2.7055,-0.063 4.0587,-0.074 1.4226,-0.01 2.8468,-0.012 4.2695,-0.014 1.5512,0.01 3.1001,0 4.6504,-0.053 1.3939,-0.028 2.7826,-0.1653 4.1718,-0.2617 1.2995,-0.058 2.5949,-0.1755 3.8926,-0.2617 1.0376,-0.044 2.0717,-0.1059 3.1035,-0.2168 0.2916,-0.033 0.5844,-0.056 0.877,-0.082 0.3092,-0.2301 0.7599,-0.3769 1.3633,-0.3769 h 3.6445 4.8086 c 1.3186,0.016 2.6348,-0.076 3.9512,-0.1407 1.1755,-0.02 2.3439,-0.145 3.5136,-0.25 1.6867,-0.1898 3.3768,-0.3367 5.0703,-0.4375 1.3966,-0.1087 2.7929,-0.2229 4.1915,-0.3027 1.1599,-0.064 2.3211,-0.083 3.4824,-0.098 1.1963,-0.063 2.3928,-0.1339 3.5898,-0.1816 1.2752,-0.1058 2.5544,-0.1598 3.8301,-0.2559 1.4178,-0.1259 2.8401,-0.1981 4.2617,-0.2481 1.7119,-0.097 3.423,-0.1799 5.1367,-0.2343 1.9524,-0.026 3.9034,-0.084 5.8536,-0.166 1.5873,-0.1058 3.1753,-0.2131 4.7597,-0.3555 1.318,-0.1302 2.638,-0.2538 3.9532,-0.4102 1.3366,-0.1657 2.6771,-0.3028 4.0156,-0.4472 1.6475,-0.1529 3.2917,-0.3301 4.9355,-0.5176 1.43,-0.2 2.8625,-0.3852 4.3008,-0.5137 1.2605,-0.1423 2.5218,-0.2563 3.7852,-0.3691 1.7406,-0.1189 3.4737,-0.3379 5.2109,-0.5 1.5802,-0.1378 3.1599,-0.2875 4.7383,-0.4453 1.4394,-0.1353 2.8833,-0.2086 4.3183,-0.3887 1.2855,-0.1654 2.575,-0.2888 3.8594,-0.4629 1.4625,-0.1794 2.9267,-0.3413 4.3887,-0.5254 1.5691,-0.2254 3.1447,-0.4155 4.7246,-0.5469 1.464,-0.1611 2.9315,-0.2578 4.4023,-0.33 1.2658,-0.1137 2.5364,-0.1786 3.8028,-0.2832 1.4274,-0.1749 2.859,-0.3119 4.289,-0.4629 1.5707,-0.1596 3.1415,-0.3192 4.7168,-0.4317 1.467,-0.1329 2.9329,-0.2793 4.4004,-0.4043 1.6734,-0.1299 3.3506,-0.1723 5.0254,-0.2793 1.6871,-0.087 3.3701,-0.2157 5.0566,-0.3125 1.6383,-0.1424 3.2774,-0.3054 4.9122,-0.4804 1.4851,-0.1414 2.9704,-0.2895 4.455,-0.4356 1.3637,-0.1568 2.7147,-0.4069 4.0723,-0.6035 1.4417,-0.2068 2.8772,-0.4519 4.3184,-0.6621 1.6546,-0.2678 3.3203,-0.4533 4.9824,-0.668 1.5717,-0.2038 3.1423,-0.4307 4.7129,-0.6426 1.5397,-0.2411 3.0897,-0.3847 4.6308,-0.6152 1.2955,-0.1951 2.6,-0.3389 3.9004,-0.4961 1.4894,-0.2211 2.9886,-0.3457 4.4825,-0.5312 1.6402,-0.2017 3.2866,-0.3627 4.9277,-0.5567 1.4423,-0.1499 2.8778,-0.3431 4.3066,-0.5898 1.3885,-0.2762 2.7815,-0.529 4.1719,-0.7949 1.3832,-0.304 2.78,-0.5368 4.1836,-0.7227 1.373,-0.204 2.7518,-0.3611 4.123,-0.5762 1.2783,-0.1991 2.5548,-0.412 3.8321,-0.6172 1.2698,-0.1707 2.5212,-0.4449 3.7715,-0.7207 0.7544,-0.1514 1.5073,-0.3069 2.2578,-0.4746 0.302,-0.068 0.575,-0.088 0.8164,-0.072 0.1737,0.012 0.1251,0.1841 0.2656,0.2305 0.161,-0.024 0.3221,-0.052 0.4824,-0.076 1.4214,-0.2008 2.8418,-0.4117 4.2598,-0.6348 1.3577,-0.1704 2.7125,-0.3593 4.0644,-0.5683 1.5726,-0.2776 3.1447,-0.5524 4.7286,-0.7578 1.6517,-0.2325 3.3182,-0.3613 4.9785,-0.5196 1.5181,-0.1836 3.0368,-0.3435 4.5586,-0.4941 1.8017,-0.1744 3.5985,-0.4128 5.3906,-0.6621 1.7971,-0.2291 3.5835,-0.5105 5.3711,-0.8028 1.5804,-0.2976 3.1738,-0.53 4.7637,-0.7695 1.6377,-0.2723 3.2737,-0.5628 4.916,-0.8066 1.8799,-0.3308 3.7592,-0.6523 5.6465,-0.9356 1.813,-0.3014 3.6305,-0.5713 5.4511,-0.8222 1.7201,-0.2358 3.4471,-0.4337 5.1719,-0.627 1.7414,-0.2325 3.4785,-0.4909 5.2168,-0.7461 1.7963,-0.2312 3.5811,-0.5425 5.3691,-0.8281 1.4842,-0.2352 2.9553,-0.527 4.4239,-0.8438 1.3508,-0.3167 2.7233,-0.5243 4.084,-0.791 1.526,-0.2819 3.0663,-0.4784 4.6035,-0.6875 1.6581,-0.1905 3.3141,-0.3927 4.9668,-0.6269 1.6213,-0.2142 3.2407,-0.4465 4.8672,-0.6192 1.3407,-0.158 2.6709,-0.3856 4.0058,-0.5859 1.6306,-0.2009 3.2507,-0.4832 4.877,-0.7148 1.4996,-0.2488 3.0079,-0.4287 4.5175,-0.6036 1.6348,-0.1315 3.2635,-0.3337 4.8946,-0.5019 1.6269,-0.1504 3.252,-0.3258 4.8769,-0.4961 1.4414,-0.1331 2.8832,-0.2536 4.3262,-0.3672 0.6944,-0.1398 1.38,-0.3178 2.0762,-0.4492 2.9248,-0.4099 5.8657,-0.699 8.8125,-0.8985 3.0122,-0.2642 6.0266,-0.455 9.0488,-0.5566 2.7344,-0.1916 5.4446,-0.6082 8.168,-0.9102 0.7837,-0.066 1.5694,-0.097 2.3535,-0.1582 1.1264,-0.1707 2.2506,-0.3501 3.3828,-0.4804 1.4723,-0.1893 2.9488,-0.3565 4.4258,-0.5059 1.4413,-0.1841 2.8873,-0.3123 4.332,-0.4648 1.2213,-0.155 2.4522,-0.2002 3.6777,-0.2949 1.0572,-0.1008 2.1153,-0.174 3.1758,-0.2286 0.1525,-0.01 0.3066,-0.014 0.459,-0.019 0.402,-0.017 0.6382,0.1177 0.9141,0.2168 0.039,-0.01 0.063,-0.026 0.1035,-0.033 0.7948,-0.138 1.596,-0.2349 2.3965,-0.3339 1.831,-0.2349 3.6426,-0.5885 5.4551,-0.9336 1.7372,-0.31 3.4744,-0.6198 5.2148,-0.9121 1.8302,-0.2957 3.6752,-0.5063 5.5195,-0.6915 1.7106,-0.1775 3.4153,-0.401 5.127,-0.5722 1.4933,-0.1249 2.9894,-0.2204 4.4844,-0.3242 1.5948,-0.08 3.1869,-0.2013 4.7812,-0.293 1.545,-0.053 3.0812,-0.2247 4.6191,-0.3691 1.5949,-0.1666 3.1889,-0.3404 4.7852,-0.4922 1.4992,-0.1446 2.9903,-0.3695 4.4883,-0.5293 1.5077,-0.2039 3.028,-0.2936 4.543,-0.42 1.6028,-0.1547 3.2094,-0.2279 4.8183,-0.2812 1.7344,-0.041 3.4677,-0.1343 5.1973,-0.2676 1.7082,-0.1299 3.4186,-0.2016 5.1308,-0.25 1.8076,-0.017 3.614,-0.1102 5.42,-0.1777 1.8528,-0.067 3.7067,-0.096 5.5605,-0.1172 1.8478,-0.017 3.6951,-0.021 5.543,-0.025 1.7239,0 3.4479,0 5.1718,-0.01 1.5599,-0.011 3.1223,0.022 4.6817,-0.022 1.5548,-0.067 3.1082,-0.1249 4.6641,-0.1621 1.5839,-0.01 3.1658,-0.07 4.748,-0.1387 1.6853,-0.1179 3.3711,-0.2203 5.0586,-0.3008 1.2862,-0.048 2.5686,-0.1713 3.8535,-0.2441 1.4447,-0.067 2.89,-0.09 4.3359,-0.1074 1.2353,0.012 2.4685,-0.033 3.7012,-0.1036 1.2356,-0.076 2.4714,-0.11 3.709,-0.1328 1.2896,-0.021 2.5819,-0.028 3.8711,-0.033 1.145,0 2.2863,0.01 3.4297,-0.055 1.3479,-0.086 2.6986,-0.1239 4.0488,-0.1504 1.4789,-0.025 2.9584,-0.033 4.4375,-0.041 1.3695,-0.01 2.7399,-0.01 4.1094,-0.01 1.5785,-0.01 3.1532,0.088 4.7305,0.1407 1.8151,0.053 3.6315,0.069 5.4472,0.084 1.4878,0.012 2.977,0.016 4.4649,0.019 1.2169,0 2.4334,-0.001 3.6504,0 1.2731,4e-4 2.5451,0 3.8183,0 1.5883,0 3.1773,0 4.7656,0 1.5278,-0.011 3.0573,0.023 4.584,-0.022 1.3102,-0.034 2.6159,-0.1438 3.9219,-0.2442 1.2884,-0.1008 2.5795,-0.1505 3.8711,-0.1836 1.4018,-0.029 2.8031,-0.037 4.2051,-0.043 1.4797,-0.055 2.9594,-0.126 4.4394,-0.1718 1.4957,-0.043 2.9922,-0.058 4.4883,-0.07 1.3358,-0.01 2.672,-0.012 4.0078,-0.014 1.615,-0.026 3.2266,0.052 4.8399,0.1132 1.526,0.099 3.0544,0.1992 4.582,0.2715 1.1318,0.05 2.2618,0.074 3.3945,0.09 1.0176,0 2.0336,0.1051 3.0489,0.1641 0.9268,0.028 1.8503,0.1052 2.7714,0.209 0.6866,0.077 1.11117,0.3369 1.38292,0.6504 h 0.076 c 0.9997,0.01 1.9974,0.076 2.996,0.125 4.1694,0.017 8.3389,0.041 12.5079,0.1054 4.2953,0.078 8.5911,0.1909 12.8789,0.4707 0.3014,0.019 0.6037,0.03 0.9043,0.049 0.6746,0 1.3508,0 2.0254,0 1.5155,10e-5 3.0294,0 4.5449,0 1.5874,-0.049 3.1742,-0.1196 4.7617,-0.164 1.391,-0.036 2.7825,-0.055 4.1738,-0.068 1.4362,-0.028 2.8738,0.029 4.3067,0.125 1.4029,0.082 2.7954,0.2545 4.1875,0.4414 1.2992,0.1572 2.5995,0.3153 3.9023,0.4394 1.3071,0.1146 2.6102,0.2417 3.9199,0.3243 1.4115,0.079 2.8271,0.1038 4.2403,0.123 1.56,0.061 3.1195,0.1342 4.6797,0.1895 1.3104,0.083 2.6193,0.1852 3.9277,0.2949 1.7399,0.1055 3.4794,0.2382 5.2187,0.3418 1.7905,0.1361 3.5726,0.3368 5.3633,0.4726 1.8254,0.1681 3.6566,0.2682 5.4844,0.4043 1.7573,0.1057 3.5102,0.2859 5.2559,0.5098 1.7569,0.2162 3.5213,0.3649 5.2851,0.5156 1.3844,0.094 2.7676,0.2099 4.1445,0.3828 1.4169,0.18 2.8405,0.296 4.2598,0.4551 1.2074,0.1488 2.4193,0.2667 3.6328,0.3496 1.1875,0.1317 2.3773,0.204 3.5703,0.2598 1.3419,0.087 2.6789,0.2479 4.0176,0.3691 1.4787,0.151 2.9468,0.3755 4.418,0.584 1.6008,0.2123 3.2152,0.406 4.8183,0.6406 1.2409,0.174 2.477,0.3707 3.7227,0.5079 1.0717,0.1002 2.1382,0.2574 3.2109,0.3476 1.2665,0.061 2.527,0.1789 3.7891,0.2969 1.4725,0.1813 2.9521,0.3112 4.4238,0.498 1.1163,0.1473 2.2379,0.2171 3.3574,0.336 1.0873,0.1115 2.1786,0.1708 3.2676,0.2656 1.3879,0.089 2.7539,0.3596 4.1192,0.6094 1.1698,0.2027 2.3387,0.4438 3.4863,0.7265 0.4876,0.128 0.9889,0.1913 1.4863,0.2676 0.2099,-0.3714 0.6608,-0.5989 1.2949,-0.4844 0.232,0.042 0.4865,0.13 0.7618,0.2715 0.4171,0.2147 0.8714,0.3333 1.3281,0.4278 0.787,0.1112 1.5772,0.1997 2.3691,0.2675 1.1843,0.092 2.3734,0.1137 3.5606,0.1348 1.2994,-0.011 2.5896,0.1404 3.8808,0.2637 1.3917,0.1039 2.774,0.3028 4.1621,0.4433 1.4581,0.1437 2.9088,0.3421 4.3633,0.5157 1.3114,0.1218 2.6205,0.2633 3.9336,0.3652 1.3391,0.089 2.6804,0.1234 4.0195,0.2129 1.4595,0.089 2.9113,0.2827 4.3614,0.4668 1.1586,0.1587 2.318,0.3073 3.4844,0.3945 1.2213,0.058 2.4434,0.1458 3.664,0.2188 1.2617,0.052 2.5066,0.2603 3.7617,0.3867 1.2762,0.1769 2.561,0.2686 3.8418,0.4023 1.4968,0.1809 2.9878,0.4204 4.4825,0.6211 1.6379,0.2235 3.2729,0.4651 4.9101,0.6953 1.5059,0.2341 3.0111,0.4717 4.5117,0.7383 1.4524,0.2543 2.9102,0.4809 4.3653,0.7188 1.5988,0.2536 3.1879,0.5581 4.7832,0.832 1.2124,0.1741 2.4182,0.3962 3.6289,0.5801 1.6581,0.2492 3.2772,0.6844 4.916,1.0312 1.5876,0.3361 3.1802,0.6885 4.7754,0.959 1.3207,0.1759 2.6295,0.4144 3.9511,0.584 1.4092,0.1755 2.8263,0.3007 4.2383,0.4492 1.7544,0.2278 3.513,0.4964 5.2754,0.7051 1.7951,0.1961 3.5922,0.3705 5.3887,0.5547 1.5044,0.2175 3.0024,0.4828 4.4961,0.7636 1.5761,0.3269 3.1462,0.6702 4.7265,0.9766 1.5547,0.2751 3.101,0.6014 4.6524,0.8945 1.4529,0.2699 2.9114,0.4919 4.3691,0.7325 1.2692,0.1998 2.5402,0.401 3.8125,0.58 1.4838,0.2386 2.96,0.5158 4.4395,0.7793 1.4323,0.2346 2.8573,0.5153 4.2851,0.7754 1.8647,0.3078 3.7338,0.6025 5.6055,0.8653 1.625,0.2584 3.2558,0.4565 4.8906,0.6406 1.6723,0.1592 3.3486,0.3475 5.0098,0.5605 1.5838,0.1997 3.1686,0.3786 4.752,0.5821 1.3231,0.1905 2.6566,0.2919 3.9824,0.4589 1.5148,0.1942 3.0349,0.3589 4.5508,0.545 1.4842,0.181 2.9752,0.273 4.455,0.4902 1.0566,0.1556 2.0848,0.4565 3.1075,0.7578 0.4277,0.1261 0.6486,0.3445 0.8847,0.5527 0.1812,-0.018 0.3571,-0.042 0.5703,-0.023 0.962,0.084 1.9227,0.1857 2.8848,0.2696 1.0222,0.095 2.0464,0.1295 3.0723,0.1543 1.1377,0.055 2.273,0.189 3.4004,0.3476 0.9994,0.1478 1.9982,0.2946 3,0.4239 0.9394,0.1319 1.8883,0.1547 2.832,0.2363 0.857,0.063 1.7055,0.1895 2.5566,0.3027 1.0522,0.1156 2.0985,0.2815 3.1485,0.4141 1.2019,0.111 2.3957,0.3514 3.5957,0.5137 1.1175,0.1799 2.2405,0.3108 3.3613,0.4668 1.208,0.141 2.4031,0.3716 3.6094,0.5253 1.3652,0.1876 2.7337,0.3522 4.1035,0.502 1.2596,0.1069 2.5172,0.209 3.7754,0.332 1.0761,0.097 2.1572,0.1499 3.2344,0.2325 1.4116,0.096 2.8173,0.2423 4.2246,0.3847 1.463,0.1921 2.9376,0.2956 4.4023,0.4707 0.9625,0.1026 1.9128,0.2858 2.8711,0.418 1.0817,0.181 2.1715,0.3111 3.2617,0.4297 1.3807,0.1072 2.7536,0.2918 4.1309,0.4336 1.5715,0.1397 3.1415,0.3028 4.7148,0.4238 1.1162,0.078 2.2315,0.1234 3.3477,0.2031 1.6409,0.058 3.2746,0.2237 4.9082,0.3789 1.7034,0.1361 3.4079,0.2517 5.1133,0.3594 1.5366,0.073 3.0707,0.2216 4.6054,0.3359 1.1219,0.108 2.237,0.2598 3.3575,0.3809 1.5221,0.1639 3.0426,0.3587 4.5605,0.5566 1.62,0.2256 3.2354,0.4669 4.8613,0.6465 1.393,0.1799 2.7926,0.3227 4.1934,0.4239 1.0927,0.068 2.1837,0.09 3.2754,0.1738 1.1381,0.098 2.2823,0.1384 3.4238,0.168 1.1178,0.027 2.2335,0.038 3.3516,0.045 1.3789,-0.01 2.7538,0.1336 4.1269,0.2382 1.8617,0.1146 3.7211,0.2326 5.584,0.3262 1.7579,0.077 3.5141,0.21 5.2715,0.2988 1.4757,0.068 2.9527,0.097 4.4297,0.1172 1.8468,0.06 3.6914,0.1698 5.5351,0.2754 1.8599,0.1107 3.7234,0.1598 5.586,0.1973 1.5886,0.039 3.1774,0.018 4.7656,0.068 1.6307,0.071 3.2627,0.1341 4.8945,0.1719 1.5324,0.032 3.0649,0.044 4.5977,0.053 1.3775,0.01 2.7532,0.01 4.1308,0.012 1.058,0.001 2.1159,0 3.1739,0 0.5205,1e-4 0.4538,0.001 0.7617,0.02 0.3477,-0.2172 0.8466,-0.3329 1.5117,-0.2305 0.7118,0.1096 1.4338,0.1217 2.1524,0.1445 1.2483,0.034 2.4974,0.044 3.746,0.053 1.2081,-0.01 2.4141,0.017 3.6211,0.064 1.5353,0.064 3.0714,0.1145 4.6075,0.1485 1.4943,0.029 2.9878,0.035 4.4824,0.041 1.4804,0.01 2.9628,0.01 4.4433,0.01 1.3323,0.001 2.6615,0.024 3.9922,-0.047 1.0432,-0.067 2.0863,-0.1154 3.1309,-0.1485 1.2188,-0.035 2.4409,-0.036 3.6601,-0.041 1.503,0 3.0057,-0.01 4.5079,-0.01 1.3566,-6e-4 2.7137,0 4.0703,0 1.4085,-1e-4 2.816,0 4.2246,0 1.096,0 2.1929,0 3.289,0 h 4.752 4.6172 4.4199 c 1.2721,0.027 2.5402,-0.024 3.8106,-0.084 1.3995,-0.1139 2.8008,-0.2166 4.2031,-0.291 1.2798,-0.064 2.5587,-0.086 3.8398,-0.1016 1.4097,-0.014 2.8207,-0.016 4.2305,-0.02 1.3603,0 2.7198,0 4.0801,0 0.8973,-3e-4 1.7942,1e-4 2.6914,0 0.9847,0 1.9704,0 2.9551,0 1.1781,-0.014 2.3543,0 3.5312,0.055 1.8725,0.08 3.7472,0.1161 5.6211,0.1446 1.6815,0.023 3.3613,0.033 5.043,0.041 1.1627,0.01 2.3274,0.01 3.4902,0.01 0.9706,7e-4 1.9396,-2e-4 2.9102,0 1.1755,0.026 2.3499,-0.061 3.5234,-0.1133 1.6812,-0.077 3.3635,-0.063 5.0449,-0.127 1.3084,-0.069 2.6183,-0.142 3.9278,-0.1855 1.2211,-0.011 2.4373,-0.067 3.6562,-0.1406 1.3307,-0.076 2.6651,-0.1188 3.9961,-0.1914 1.6157,-0.068 3.2256,-0.2004 4.8398,-0.295 1.5727,-0.083 3.1483,-0.114 4.7207,-0.205 1.8229,-0.1256 3.6502,-0.1523 5.4766,-0.1817 1.8975,-0.013 3.7927,-0.1211 5.6895,-0.1894 1.6113,-0.022 3.2163,-0.177 4.8203,-0.3164 1.3825,-0.086 2.7547,-0.2718 4.1269,-0.4532 1.2188,-0.1996 2.432,-0.4305 3.6524,-0.6211 1.7368,-0.2245 3.4872,-0.2937 5.2324,-0.4238 1.5734,-0.1114 3.1507,-0.1812 4.7207,-0.3359 1.2939,-0.1612 2.5953,-0.2214 3.8906,-0.3653 0.7377,-0.082 1.2093,0.1159 1.5391,0.3965 0.377,0 0.7528,-0.02 1.1289,-0.066 1.3633,-0.1561 2.6913,-0.5041 4.0293,-0.7949 1.2849,-0.2584 2.5816,-0.4596 3.8828,-0.6152 1.4085,-0.1596 2.8262,-0.1681 4.2402,-0.2422 1.2104,-0.075 2.4215,-0.1499 3.6328,-0.2051 0.9019,-0.001 1.7951,-0.1007 2.6875,-0.2187 1.0078,-0.1037 2.0076,-0.2538 3.0059,-0.4239 1.1616,-0.2002 2.3399,-0.2716 3.5117,-0.3847 1.2727,-0.1755 2.5483,-0.3062 3.8301,-0.3926 1.3186,-0.073 2.6409,-0.095 3.959,-0.1778 1.0213,-0.072 2.0414,-0.1316 3.0644,-0.1718 1.0846,-0.07 2.1659,-0.1942 3.2481,-0.291 1.467,-0.1356 2.9251,-0.35 4.3906,-0.5079 1.2847,-0.1037 2.5701,-0.2249 3.8555,-0.3203 1.0786,-0.051 2.1508,-0.1706 3.2265,-0.2597 1.2084,-0.1461 2.4125,-0.3062 3.625,-0.416 1.3903,-0.1078 2.7852,-0.1568 4.1758,-0.2579 1.3176,-0.087 2.6339,-0.1866 3.9473,-0.3242 1.1469,-0.1249 2.284,-0.3206 3.4297,-0.457 1.0481,-0.1181 2.095,-0.2434 3.1426,-0.3672 1.2032,-0.1234 2.4102,-0.238 3.6093,-0.4004 1.2233,-0.1543 2.448,-0.2882 3.6739,-0.4219 1.1827,-0.1326 2.3654,-0.2546 3.5488,-0.3808 1.1216,-0.094 2.2354,-0.2674 3.3515,-0.4082 1.0838,-0.1656 2.1703,-0.3132 3.2598,-0.4375 1.5426,-0.1351 3.0866,-0.264 4.6289,-0.4043 1.6716,-0.1375 3.3385,-0.3361 5.002,-0.5489 1.7177,-0.2405 3.4379,-0.4288 5.1621,-0.6152 1.5205,-0.1743 3.0489,-0.2737 4.5722,-0.4199 1.4296,-0.1154 2.8586,-0.2233 4.2891,-0.3281 1.5873,-0.1281 3.1744,-0.2886 4.7559,-0.4805 1.3834,-0.1805 2.7684,-0.3488 4.1425,-0.5918 1.3825,-0.2131 2.7614,-0.4573 4.1407,-0.6895 1.3967,-0.3133 2.8039,-0.5602 4.2148,-0.7988 1.5904,-0.3162 3.1865,-0.6165 4.7891,-0.8691 1.5488,-0.2258 3.0763,-0.5604 4.6054,-0.8887 0.4447,-0.1048 0.8916,-0.2077 1.336,-0.3125 0.2388,-0.1532 0.5294,-0.2835 0.8887,-0.3691 0.7502,-0.1789 1.5189,-0.2554 2.2773,-0.3926 1.0461,-0.1992 2.0738,-0.4723 3.1133,-0.7012 0.8373,-0.1706 1.6633,-0.3882 2.5058,-0.5332 1.1353,-0.2227 2.2853,-0.3463 3.4317,-0.4961 1.1349,-0.1673 2.2526,-0.4285 3.3769,-0.6543 0.8673,-0.177 1.7481,-0.2816 2.6231,-0.4101 1.0698,-0.1078 2.1272,-0.2888 3.1816,-0.4961 0.9388,-0.1641 1.8682,-0.3789 2.8086,-0.5332 1.1306,-0.1756 2.2454,-0.4344 3.3731,-0.627 1.0199,-0.1753 2.0344,-0.3775 3.0546,-0.5508 1.003,-0.1412 1.999,-0.3343 3,-0.4882 0.9924,-0.1282 1.9836,-0.2539 2.9786,-0.3614 1.0748,-0.1507 2.1563,-0.2498 3.2304,-0.4004 0.8605,-0.1761 1.7281,-0.3074 2.5957,-0.4414 1.142,-0.1526 2.2871,-0.2853 3.4297,-0.4336 1.2653,-0.201 2.5298,-0.4147 3.791,-0.6406 1.0136,-0.1714 2.0265,-0.3334 3.0313,-0.5547 1.0747,-0.2146 2.1428,-0.454 3.209,-0.707 1.2285,-0.3334 2.4731,-0.6019 3.7011,-0.9375 1.2159,-0.3326 2.4525,-0.5864 3.6895,-0.8262 1.2966,-0.2528 2.5935,-0.5054 3.8828,-0.7929 1.1849,-0.2598 2.3741,-0.493 3.5684,-0.7051 0.5099,-0.1082 1.0248,-0.1908 1.5371,-0.2871 0.052,-0.056 0.1438,-0.095 0.2773,-0.092 0.081,0 0.1634,0 0.2442,-0.01 0,-3e-4 0,2e-4 0,0 0.5813,-0.1061 1.1601,-0.2252 1.7422,-0.3262 1.1455,-0.1888 2.2842,-0.4089 3.4257,-0.6172 0.1571,-0.031 0.3139,-0.063 0.4707,-0.098 0.2428,-0.054 0.4886,-0.1 0.7325,-0.1484 0.2528,-0.051 0.5053,-0.1004 0.7578,-0.1524 0.2035,-0.041 0.404,-0.09 0.6054,-0.1406 0.2322,-0.058 0.46,-0.1327 0.6914,-0.1934 0.2142,-0.058 0.4304,-0.1134 0.6465,-0.164 0.2175,-0.052 0.4373,-0.094 0.6563,-0.1387 0.193,-0.035 0.3851,-0.077 0.5762,-0.1211 0.1532,-0.036 0.3055,-0.073 0.4589,-0.1094 0.094,-0.024 0.1888,-0.045 0.2832,-0.066 V -0.02682504 Z M 1098.8777,116.54148 c 0.4029,0.039 0.8043,0.089 1.2071,0.1289 7e-4,0 0,-0.01 0,-0.01 -0.4023,-0.041 -0.8042,-0.083 -1.2071,-0.1192 z m -298.50972,0.025 c -0.1366,0.015 -0.2733,0.032 -0.4102,0.047 0.1374,-0.013 0.2747,-0.025 0.4121,-0.037 -4e-4,0 0,-0.01 0,-0.01 z m 315.70702,1.8594 c 1.1728,0.1446 2.3471,0.2855 3.5195,0.4316 -0.4229,-0.049 -0.8454,-0.1071 -1.2675,-0.1621 -0.4915,-0.063 -0.9827,-0.1355 -1.4746,-0.1953 -0.2589,-0.029 -0.5177,-0.052 -0.7774,-0.074 z m 13.7793,1.3808 v 0 c 0.069,0.01 0.1378,0.019 0.207,0.025 -0.068,-0.01 -0.1366,-0.018 -0.205,-0.027 z m -419.49802,6.6367 c -0.5875,0.09 -1.176,0.171 -1.7637,0.2598 0.2562,-0.018 0.5129,-0.031 0.7695,-0.027 0.1255,0 0.2516,0.01 0.377,0.016 0.011,5e-4 0.022,-3e-4 0.033,0 0.2192,-0.071 0.3583,-0.1819 0.584,-0.25 z m -3.545,0.5196 c -1.0715,0.1608 -2.1428,0.3225 -3.2168,0.4687 0.038,0.023 0.074,0.045 0.1055,0.07 0.025,0 0.05,-0.01 0.074,-0.012 0.855,-0.163 1.712,-0.309 2.5703,-0.4512 0.156,-0.023 0.3113,-0.051 0.4668,-0.076 z m -1.0351,1.4414 c -0.3861,0.066 -0.771,0.1357 -1.1563,0.205 0.01,0.03 0.01,0.062 0,0.096 -0.1288,0.5658 -0.6491,0.6709 -1.1093,0.709 0.014,0.015 0.027,0.031 0.039,0.049 0.038,0.059 0.069,0.1137 0.096,0.166 0.6779,-0.4221 1.3667,-0.8368 2.1308,-1.2246 z m -10.1992,0.3554 c -0.5018,0.065 -1.003,0.1361 -1.5039,0.2071 -0.075,0.011 -0.1498,0.025 -0.2246,0.037 0.4278,-0.018 0.8555,-0.041 1.2831,-0.064 0.15,-0.01 0.2995,-0.023 0.4493,-0.031 0,-0.049 -0.01,-0.099 0,-0.1485 z m -9.1875,2.0274 c -0.406,0.032 -0.8103,0.073 -1.2149,0.123 l 1.3223,0.01 c -0.073,-0.028 -0.049,-0.091 -0.1074,-0.1289 z m 1212.23242,4.1308 c -0.063,0.01 -0.1248,0.021 -0.1875,0.029 0.031,-4e-4 0.065,0 0.096,0 0.032,0 0.105,-0.029 0.092,-0.027 z M 0.00467906,136.87548 v 0.8652 c 0.1032,0.018 0.1685,0.013 0.2832,0.039 0.037,-0.2281 0.047,-0.4572 0.074,-0.6856 -0.1412,-0.059 -0.2543,-0.137 -0.3574,-0.2187 z M 1827.5516,137.87938 c -0.5143,0.071 -1.0312,0.1227 -1.541,0.2226 -0.3032,0.051 -0.6009,0.1247 -0.9004,0.1914 0.2434,-0.039 0.4892,-0.057 0.7324,-0.098 0.5734,-0.084 1.1387,-0.2126 1.709,-0.3164 z m -1193.25782,0.027 c -0.074,0.01 -0.1471,0.018 -0.2207,0.027 0,0.01 0.01,0.012 0.012,0.018 0.07,-0.014 0.1392,-0.03 0.2089,-0.045 z m -24.1328,3.1621 c -0.022,0 -0.043,0.01 -0.064,0.01 l 0.061,-0.01 c 0,-8e-4 0,0 0,0 z m 7.5859,0.5254 c -0.3842,0.037 -0.7675,0.081 -1.1524,0.1133 -0.871,0.066 -1.7397,0.1516 -2.6093,0.2343 -0.108,0.026 -0.2161,0.052 -0.3242,0.078 0.6651,-0.046 1.3314,-0.075 1.9941,-0.1543 0.7022,-0.051 1.3918,-0.2003 2.0918,-0.2714 z m -611.902401,0.051 c -0.171,0.01 -0.334,0.078 -0.5078,0.088 0.012,0.033 0.014,0.07 0.023,0.1035 0.088,-0.01 0.1754,-0.025 0.2636,-0.031 0.043,-0.049 0.064,-0.082 0.1094,-0.1328 0.027,-0.03 0.077,-0.013 0.1113,-0.027 z m -1.6601,0.3183 c -0.027,0 -0.048,0.021 -0.074,0.023 0.038,-0.01 0.077,-0.01 0.1152,-0.014 -0.013,0 -0.029,-0.01 -0.041,-0.01 z m 595.160101,0.7344 c -0.1166,0.019 -0.2329,0.038 -0.3496,0.057 0.097,-0.001 0.194,-0.01 0.2911,-0.01 0.017,-0.017 0.039,-0.032 0.059,-0.049 z m -597.205001,3.4004 c 0.019,0.019 0.034,0.04 0.053,0.059 0.016,0 0.033,0 0.049,0 -0.034,-0.022 -0.068,-0.04 -0.1015,-0.062 z m 22.152301,1.875 c 0.01,0.024 0.02,0.048 0.029,0.072 0.056,-0.018 0.1158,-0.036 0.1602,-0.049 -0.063,-0.01 -0.1263,-0.016 -0.1895,-0.023 z m 493.0332,4.6406 c -0.03,0 -0.06,0.01 -0.09,0.01 0,0 0.01,0.01 0.01,0.01 0.027,-0.01 0.055,-0.011 0.082,-0.016 z m -516.44920095,0.6739 c 0.01,0.036 0.01,0.065 0.019,0.1133 0.01,-3e-4 0.011,0 0.018,0 -0.011,-0.043 -0.018,-0.086 -0.037,-0.1114 z m 509.20900095,0.4551 c -0.433,0.043 -0.8655,0.09 -1.2969,0.1503 -0.1967,0.025 -0.3933,0.049 -0.5898,0.074 0.148,-0.01 0.2951,-0.027 0.4433,-0.033 0.4845,-0.036 0.9599,-0.1437 1.4434,-0.1914 z m 1183.11332,0.4414 c -0.1643,0.01 -0.328,0.018 -0.4922,0.027 0.01,0.019 0.013,0.036 0.023,0.053 0.1567,-0.025 0.3125,-0.055 0.4688,-0.08 z m -1193.83792,0.2089 c -0.3541,0.028 -0.7067,0.058 -1.0606,0.088 -0.4169,0.036 -0.8333,0.075 -1.25,0.1153 -0.079,0.01 -0.1575,0.02 -0.2363,0.029 0.2108,-0.011 0.4211,-0.029 0.6308,-0.051 0.6382,-0.07 1.2789,-0.097 1.92,-0.1211 -7e-4,-0.02 0,-0.04 0,-0.061 z m 1188.30472,0.7149 c -0.041,0 -0.081,0.01 -0.1211,0.012 -0.01,0 -0.014,0.01 -0.022,0.012 0.047,-0.01 0.095,-0.016 0.1426,-0.023 z m -2.8223,0.1387 c 0,0 -3e-4,0 0.012,0 0.01,0.015 0.018,0.032 0.027,0.049 0.048,-0.017 0.096,-0.034 0.1445,-0.051 -0.052,-3e-4 -0.1044,7e-4 -0.1563,0 -0.01,-2e-4 -0.014,0 -0.021,0 z m -2.3652,0.2265 c -0.1132,0.011 -0.2268,0.019 -0.3399,0.029 0.079,-0.01 0.1575,-0.012 0.2363,-0.018 0.037,0 0.066,-0.01 0.1036,-0.012 z m -7.8282,0.5176 c -0.045,0 -0.09,0 -0.1347,0.01 0.046,7e-4 0.092,-7e-4 0.1386,0 v -0.01 z m 6.9375,0.127 c -0.072,0.01 -0.1,0.01 -0.1777,0.018 v 0.01 c 0.06,-0.01 0.1184,-0.017 0.1777,-0.025 z m -13.4726,0.1738 c -0.053,0 -0.1066,0.01 -0.1602,0.012 0.058,2e-4 0.1158,0 0.1738,0 -0.01,0 -0.01,-0.01 -0.012,-0.014 z m -244.4258,0.3398 c 0,0.038 0.012,0.076 0.012,0.1133 0.4596,0.024 0.9191,0.037 1.3789,0.059 -0.048,-0.01 -0.096,-0.013 -0.1445,-0.019 -0.4139,-0.054 -0.8283,-0.099 -1.2422,-0.1523 z m 163.9199,2.8906 c 0.1004,0 0.2005,0.014 0.3008,0.021 0.1,-0.01 0.1992,-0.013 0.2988,-0.021 z m -113.9765,0.1504 c -0.012,0.042 -0.033,0.1107 -0.047,0.1563 h 6.2461 1.0488 c -0.433,-0.017 -0.8659,-0.026 -1.2988,-0.045 -1.5781,-0.051 -3.1596,-0.028 -4.7383,-0.068 -0.404,-0.01 -0.8069,-0.033 -1.2109,-0.043 z m 24.7871,0.1133 c -0.053,0.028 -0.1501,0.018 -0.2071,0.043 h 0.4356 c 0.1257,0 0.2511,0 0.3769,0 -0.2016,-0.02 -0.405,-0.013 -0.6054,-0.043 z m -1074.23442,0.9082 c -0.1988,0.013 -0.3973,0.025 -0.5957,0.039 0.1857,0 0.3709,-0.017 0.5566,-0.018 0.015,-0.01 0.025,-0.015 0.039,-0.022 z m -6.8106,0.3223 c -0.1528,0.016 -0.3062,0.023 -0.4589,0.039 0.1569,-0.01 0.3137,-0.021 0.4707,-0.031 0,0 -0.01,-0.01 -0.012,-0.01 z m -187.4218,0.3203 c -0.01,0.022 -0.02,0.038 -0.018,0.068 0.001,-4e-4 0,0 0,0 0.01,-0.02 0.02,-0.039 0.037,-0.059 -0.01,0 -0.016,0 -0.023,-0.01 z m 1670.70502,0.291 c -0.088,0.1118 -0.1682,0.2274 -0.2636,0.336 l 0.08,1.5117 h 0.1835 z m -1646.04882,0.8887 c 0,0.01 0.01,0.018 0.01,0.027 0.2594,0.014 0.5182,0.03 0.7774,0.047 0.1901,0 0.3801,-0.011 0.5703,-0.012 -0.4515,-0.033 -0.9032,-0.049 -1.3555,-0.062 z m 2.543,0.6973 c 0.1164,0.01 0.2331,0.01 0.3496,0.014 -0.01,-7e-4 -0.012,-5e-4 -0.018,0 -0.1107,0 -0.2214,-0.01 -0.332,-0.012 z m 1.625,0.057 c 0,0 -0.01,0 -0.012,0.01 0.1179,0 0.2356,0.011 0.3535,0.014 0.09,0.001 0.1811,1e-4 0.2715,0 -0.09,0 -0.181,-0.01 -0.2715,-0.01 -0.1139,0 -0.2279,-0.01 -0.3418,-0.012 z m 160.5195,0.1132 c -0.046,0 -0.093,0 -0.1387,0.01 0.001,0.026 -0.01,0.053 -0.016,0.078 0.046,-0.03 0.1115,-0.052 0.1543,-0.084 z m 1386.84182,0.061 c -0.4199,0.011 -0.8411,0.021 -1.2617,0.031 h 1.2559 c 0,-0.012 -4e-4,-0.021 0.014,-0.031 z m -1552.64452,0.012 c -2e-4,0.01 0,0.013 0,0.02 h 0.3887 c -0.129,-0.01 -0.2579,-0.012 -0.3868,-0.02 z m -4.6699,0.014 c -0.014,0 -0.027,0 -0.041,0.01 h 0.088 c -0.016,0 -0.031,0 -0.047,-0.01 z" />
    <path
       id="rect1-1-1"
       style="display:inline;fill:url(#linearGradient2);stroke-width:34.8647"
       inkscape:label="rect1"
       d="m 1844.0477,-3.462425 c 0.014,0.013 0.027,0.026 0.041,0.039 -4e-4,-0.01 0,-0.017 0,-0.025 -0.014,0 -0.027,-0.01 -0.041,-0.014 z m 66.9179,3.02149996 c -0.4092,7e-4 -0.8174,8e-4 -1.2265,0 -0.4094,0 -0.8192,0.01 -1.2285,0.021 -0.3826,0.014 -0.7655,0.04 -1.1485,0.043 -0.385,0.01 -0.7696,0.012 -1.1543,0.025 -0.4081,0.015 -0.8161,0.036 -1.2246,0.033 -0.3826,0 -0.766,0.01 -1.1484,0.019 -0.3082,0.013 -0.6152,0.031 -0.9219,0.065 -0.3772,0.031 -0.7564,0.042 -1.1348,0.037 h -1.332 -1.2754 -0.1289 c -1.2277,0.027 -2.4556,0.063 -3.6816,0.1328 -0.4246,0.022 -0.8492,0.033 -1.2735,0.043 0.084,1.59760004 0.1508,3.19530004 0.2735,4.79290004 0.5893,6.8727 0.9234,13.7613 1.1504,20.6543 0.2201,8.0757 0.2626,16.1563 0.3066,24.2344 0.105,9.6857 -0.9229,19.3178 -1.8496,28.9434 -0.8261,9.8615 -1.8059,19.707897 -2.8262,29.550705 -0.5236,5.3395 -1.0029,10.6838 -1.4648,16.0293 0.097,-0.01 0.1945,-0.024 0.291,-0.039 0.1209,-0.021 0.2398,-0.047 0.3594,-0.074 0.1709,-0.038 0.3434,-0.065 0.5156,-0.096 0.1945,-0.04 0.3906,-0.072 0.5879,-0.094 0.2078,-0.021 0.4163,-0.041 0.623,-0.07 0.216,-0.038 0.4322,-0.079 0.6465,-0.125 0.1979,-0.037 0.3936,-0.082 0.5899,-0.1269 0.2257,-0.05 0.4513,-0.1014 0.6777,-0.1484 0.2095,-0.042 0.4192,-0.084 0.6289,-0.125 0.2188,-0.041 0.435,-0.086 0.6523,-0.1348 0.2428,-0.054 0.4886,-0.1 0.7325,-0.1484 0.2528,-0.051 0.5053,-0.1006 0.7578,-0.1524 0.2035,-0.041 0.404,-0.091 0.6054,-0.1406 0.2322,-0.058 0.4615,-0.1327 0.6914,-0.1934 0.2142,-0.058 0.4304,-0.1134 0.6465,-0.164 0.2175,-0.052 0.4373,-0.094 0.6563,-0.1387 0.193,-0.035 0.3851,-0.077 0.5762,-0.1211 0.1532,-0.037 0.3055,-0.073 0.4589,-0.1094 0.1358,-0.034 0.2716,-0.064 0.4082,-0.096 0.1234,-0.031 0.2484,-0.056 0.3731,-0.082 1.097,-0.31 2.2045,-0.5781 3.3164,-0.8144 1.3265,-0.2838 2.6536,-0.5681 3.9727,-0.8906 1.2124,-0.2916 2.4283,-0.553 3.6503,-0.7911 1.2914,-0.3004 2.5921,-0.5495 3.8926,-0.7968 1.3562,-0.2451 2.7038,-0.537 4.0567,-0.8008 -2e-4,-0.01 -3e-4,-0.021 0,-0.031 0,-0.015 6e-4,-0.03 0,-0.045 5e-4,-0.016 2e-4,-0.033 0,-0.049 -10e-5,-0.016 0,-0.031 0,-0.047 v -0.041 -0.041 -0.059 -0.059 c 0.01,-0.015 0.01,-0.032 0.01,-0.047 0,-0.01 0.01,-0.018 0.01,-0.027 1e-4,-0.011 -10e-5,-0.022 0,-0.033 5e-4,-0.071 0,-0.1435 0,-0.2149 0,-0.065 0,-0.1301 0,-0.1953 0,-0.061 -0.01,-0.121 -0.01,-0.1816 0,-0.056 6e-4,-0.1119 0,-0.168 0,-0.048 -0.01,-0.095 -0.01,-0.1426 0,-0.043 -0.012,-0.086 -0.012,-0.1289 -0.01,-0.045 -0.01,-0.089 -0.01,-0.1347 7e-4,-0.039 3e-4,-0.08 0,-0.1192 -3e-4,-0.04 0,-0.079 0,-0.1191 -10e-5,-0.054 0,-0.11 0,-0.1641 v -0.1523 -0.1543 -0.1485 -0.1621 c 0,-0.053 0.014,-0.1065 0.014,-0.1601 0.01,-0.098 0.012,-0.1972 0.022,-0.295 0.01,-0.078 0.017,-0.1533 0.027,-0.2304 0.01,-0.055 0.01,-0.1105 0.018,-0.166 0.01,-0.066 0.01,-0.1329 0.01,-0.1993 0,-0.062 -5e-4,-0.1238 0,-0.1855 v -0.1777 c 0,-0.099 0.013,-0.1983 0.021,-0.2969 0.01,-0.1316 0.015,-0.2629 0.025,-0.3945 0.01,-0.157 0.024,-0.3138 0.035,-0.4707 0.013,-0.153 0.022,-0.3059 0.033,-0.459 0.01,-0.103 0.014,-0.2058 0.021,-0.3086 -0.1024,-0.021 -0.1712,-0.1411 -0.1132,-0.3477 0.033,-0.1196 0.065,-0.2383 0.092,-0.3594 -0.01,-0.023 -0.025,-0.031 -0.029,-0.061 -0.011,-0.085 -0.012,-0.1689 -0.022,-0.2539 -0.014,-0.1868 -0.023,-0.3734 -0.024,-0.5605 0.01,-0.3727 0.061,-0.7431 0.1016,-1.1133 0.047,-0.4477 0.1062,-0.8948 0.1602,-1.3418 0,-0.029 0,-0.057 0.01,-0.086 -0.042,-0.4693 -0.061,-0.9413 -0.074,-1.4121 -0.015,-0.4408 -0.018,-0.8814 -0.018,-1.3223 8e-4,-0.4585 4e-4,-0.9164 0,-1.375 -2e-4,-0.4549 0,-0.9102 0,-1.3652 0.021,-0.3498 -0.036,-0.6942 -0.072,-1.041 -0.037,-0.3824 -0.051,-0.7643 -0.1036,-1.144508 -0.071,-0.4813 -0.1067,-0.9678 -0.1347,-1.4532 -0.025,-0.513097 -0.033,-1.025397 -0.033,-1.538997 -0.01,-0.4694 -0.012,-0.9389 -0.012,-1.4082 -7e-4,-0.4349 0,-0.8698 0,-1.3047 -0.017,-0.5165 0.012,-1.0298 0.068,-1.543 0.045,-0.3688 0.065,-0.7402 0.08,-1.1113 0,-0.4122 0.091,-0.8174 0.1309,-1.2266 0.063,-0.4506 0.1376,-0.8983 0.1796,-1.3515 0.036,-0.4712 0.047,-0.9438 0.057,-1.4161 0.012,-0.4297 0.014,-0.8592 0.014,-1.289 -4e-4,-0.4296 -3e-4,-0.8595 0,-1.2891 2e-4,-0.4456 -10e-5,-0.8922 0,-1.3379 v -1.2675 -1.2383 -1.3828 -1.5625 -1.5469 c 0,-0.4379 0.011,-0.8744 -0.029,-1.3106 -0.048,-0.4468 -0.082,-0.8931 -0.1075,-1.3418 -0.021,-0.4342 -0.021,-0.87 -0.031,-1.3046 0,-0.3179 -0.064,-0.6329 -0.098,-0.9493 -0.015,-0.3483 -0.086,-0.6887 -0.1347,-1.0332 -0.063,-0.4831 -0.086,-0.9705 -0.1036,-1.457 -0.011,-0.4212 -0.021,-0.8422 -0.021,-1.2637 0,-0.4363 5e-4,-0.8722 0,-1.3086 -4e-4,-0.3777 0,-0.755 0,-1.1328 -10e-5,-0.3633 0,-0.7265 0,-1.0898 v -1.1778 c 0,-0.4533 -0.01,-0.9067 0.021,-1.3593 0.043,-0.4433 0.085,-0.8856 0.1133,-1.3301 0.024,-0.4199 0.028,-0.8405 0.061,-1.2598 0.048,-0.3764 0.092,-0.7542 0.1191,-1.1328 0.025,-0.4104 0.025,-0.8214 0.035,-1.2324 0.01,-0.4888 0.01,-0.9761 0.01,-1.4649 -4e-4,-0.564 -2e-4,-1.1292 0,-1.6933 2e-4,-0.4932 0,-0.9854 0,-1.4785 v -1.7561 -1.6445 -1.3965 -1.7011 -1.9864 -1.4082 c -0.012,-0.5592 -0.07,-1.1168 -0.1,-1.6758 -0.074,-0.7947 -0.1337,-1.5898 -0.1777,-2.3867 -0.033,-0.6425 -0.053,-1.2864 -0.062,-1.9297 -0.013,-0.5844 -0.012,-1.1694 -0.012,-1.7539 -0.037,-0.6604 -0.084,-1.3198 -0.1192,-1.9804 -0.015,-0.3889 -0.01,-0.1973 -0.023,-0.5723 -0.056,-1.3796 0.461,-2.2268 1.1152,-2.543 -0.01,-0.4537 -0.019,-0.9076 -0.012,-1.3613 0,-0.4376 -9e-4,-0.875 0.012,-1.3125 0.01,-0.3332 0.019,-0.6669 0.029,-1 0,-0.1433 0.01,-0.2866 0.018,-0.4297 -0.026,-0.3462 -0.045,-0.693 -0.074,-1.0391 -0.06,-1.1658 -0.086,-2.3305 -0.07,-3.498 0.014,-1.0035 0.3192,-1.7074 0.7402,-2.1328 -0.1988,-0.4721 -0.3469,-0.9608 -0.4922,-1.4512 -0.1588,-0.5307 -0.2418,-1.0774 -0.3515,-1.6191 -0.1008,-0.4971 -0.1417,-1.004 -0.2227,-1.5039 -0.082,-0.5048 -0.132,-1.0135 -0.166,-1.5235 -0.028,-0.4464 -0.031,-0.8927 -0.041,-1.3398 -0.01,-0.4874 -0.01,-0.9755 -0.01,-1.4628996 3e-4,-0.4371 2e-4,-0.8735 0,-1.3106 -10e-5,-0.4681004 0,-0.9380004 0,-1.4062004 -10e-5,-0.4033 0,-0.8057 0,-1.209 v -1.0918 c -0.02,-0.4297 0.042,-0.8562 0.094,-1.2812 0.04,-0.3316 0.053,-0.6645 0.062,-0.9981 0.016,-0.4484 0.016,-0.8971 0.016,-1.3457 0,-0.42390004 -4e-4,-0.84750004 0,-1.27150004 v -0.072 c -0.244,-0.01 -0.488,-0.01 -0.7324,-0.018 -0.7088,-0.018 -1.4202,-0.023 -2.1289,-0.045 -0.6623,-0.017 -1.3202,-0.022 -1.9825,-0.033 -0.5923,-0.014 -1.1848,-0.034 -1.7754,-0.082 -0.5309,-0.044 -1.061,-0.088 -1.5918,-0.1328 -0.4309,-0.037 -0.8642,-0.068 -1.2968,-0.072 z m 14.4981,0.3144 c 0.018,0.2475 0.037,0.4948 0.057,0.7422 v -0.7402 c -0.019,-8e-4 -0.038,0 -0.057,0 z M 1822.4871,37.851975 c -0.8719,-0.099 -1.7317,0.2847 -2.5879,0.4766 -0.1119,0.025 -0.2184,0.066 -0.33,0.092 0.4708,0.01 0.8134,0.012 1.4062,0.031 0.5039,-0.1995 2.0502,-0.5386 1.5117,-0.5996 z m 98.1172,70.908205 c -10e-5,7e-4 10e-5,10e-4 0,0 0,0 0,0 0.01,0 -2e-4,-6e-4 10e-5,-0.001 0,0 z m 0.2481,3.8496 c -3e-4,0.091 0,0.1825 0,0.2735 0,-0.012 0.01,-0.022 0.012,-0.033 0,-0.08 -0.01,-0.1602 -0.01,-0.2403 z m -0.6348,4.9844 c -0.033,0.03 -0.067,0.064 -0.096,0.09 v 0 0.014 c 0.032,-0.01 0.064,-0.013 0.096,-0.02 z m 3.2051,13.3262 c -0.066,0.01 -0.1258,0.024 -0.1914,0.033 0.031,-6e-4 0.066,0 0.098,0 0.033,0 0.1038,-0.034 0.094,-0.031 z m 2.084,29.9765 c -0.09,0.1255 -0.1739,0.2552 -0.2715,0.377 l 0.082,1.6973 h 0.1895 z" />
  </g>
</svg>
